<svg id="Layer_1" data-name="Layer 1" xmlns="http://www.w3.org/2000/svg" viewBox="0 0 342.5 126.2"><path d="M66.066,15.012H81.12V84.7a99.33,99.33,0,0,1-19.551,2.053c-18.379,0-27.959-8.309-27.959-24.244,0-15.348,10.167-25.319,25.906-25.319a24.05,24.05,0,0,1,6.55.782Zm0,35.077a14.955,14.955,0,0,0-5.083-.782c-7.626,0-12.025,4.693-12.025,12.9,0,8.017,4.2,12.415,11.927,12.415a35.09,35.09,0,0,0,5.181-.39Z" transform="translate(0)" fill="#092e20"/><path d="M105.07,38.261v34.9c0,12.025-.88,17.792-3.519,22.778-2.445,4.791-5.671,7.821-12.318,11.145l-13.98-6.648C81.9,97.306,85.127,94.57,87.18,90.365c2.151-4.3,2.836-9.287,2.836-22.386V38.261ZM90.016,15.092H105.07V30.538H90.016Z" transform="translate(0)" fill="#092e20"/><path d="M114.163,41.682a45.3,45.3,0,0,1,19.943-4.5c7.723,0,12.806,2.052,15.055,6.061,1.27,2.248,1.661,5.18,1.661,11.438v30.6a165.746,165.746,0,0,1-21.506,1.662c-12.611,0-18.282-4.4-18.282-14.176,0-10.558,7.528-15.445,26-17.01V52.435c0-2.737-1.368-3.714-5.181-3.714a39.426,39.426,0,0,0-17.695,4.6V41.682Zm23.56,23.951c-9.972.977-13.2,2.542-13.2,6.452,0,2.932,1.858,4.3,5.964,4.3a41.516,41.516,0,0,0,7.234-.684V65.633Z" transform="translate(0)" fill="#092e20"/><path d="M158.154,40.607a90.29,90.29,0,0,1,23.657-3.421c7.723,0,13.295,1.759,16.62,5.181,3.128,3.225,4.1,6.744,4.1,14.273V86.161H187.481V57.226c0-5.767-1.955-7.919-7.331-7.919a22.7,22.7,0,0,0-6.942,1.075V86.161H158.154Z" transform="translate(0)" fill="#092e20"/><path d="M208.388,94.374a34.274,34.274,0,0,0,16.13,4.007c9.873,0,14.077-4.007,14.077-13.588V84.5a20.6,20.6,0,0,1-9.775,2.052c-13.2,0-21.606-8.7-21.606-22.483,0-17.109,12.416-26.786,34.411-26.786a95.054,95.054,0,0,1,19.65,2.15L256.12,50.292c-4.008-.782-.321-.1-3.35-.4v1.565l.195,6.353.1,8.212c.1,2.052.1,4.106.2,6.159v4.106c0,12.9-1.075,18.964-4.3,23.95-4.692,7.332-12.806,10.949-24.342,10.949a43.058,43.058,0,0,1-16.227-2.933V94.374ZM238.3,49.405h-1.564a16.449,16.449,0,0,0-8.7,2.15c-3.616,2.053-5.475,5.768-5.475,11.047,0,7.528,3.716,11.829,10.363,11.829a18.685,18.685,0,0,0,5.67-.978v-5.18c0-1.76-.1-3.716-.1-5.768l-.1-6.941-.1-4.985V49.405Z" transform="translate(0)" fill="#092e20"/><path d="M284.646,36.99c15.054,0,24.244,9.483,24.244,24.83,0,15.74-9.58,25.613-24.83,25.613-15.056,0-24.343-9.483-24.343-24.732C259.718,46.863,269.3,36.99,284.646,36.99Zm-.294,38.321c5.768,0,9.19-4.791,9.19-13.1,0-8.211-3.324-13.1-9.091-13.1-5.964,0-9.386,4.791-9.386,13.1S278.487,75.311,284.352,75.311Z" transform="translate(0)" fill="#092e20"/><rect width="342.5" height="126.2" fill="none"/></svg>